<svg version="1" xmlns="http://www.w3.org/2000/svg" width="1186.667" height="1186.667" viewBox="0 0 890.000000 890.000000"><path d="M641.6 131c-43.5 6.9-80.9 40.8-92.3 83.5-2.4 9.4-2.6 11.7-3.1 37.7l-.4 27.8H518.5l-.3 63.3c-.1 34.7.2 75.8.6 91.2.9 27.8.9 28.1 4.1 37.5 8.9 26.3 27.7 45.8 53.1 54.8l7.5 2.7h149l7.5-2.3c15.3-4.8 29.1-14.1 39-26.5 5.6-6.9 15-25 17.7-34.2 1.6-5.5 1.7-13.7 2-96.3l.4-90.2h-26.8l-.6-24.3c-.5-26-1.9-36.4-6.3-50.2-8.9-27.3-30-50.7-58-64.2-15.9-7.6-27.3-10.4-45.4-10.8-8-.2-17.2 0-20.4.5zm35.9 48c20.2 6.3 37.7 23 43.5 41.8 1.6 5 2.2 11.4 3 31.8.5 14.1.7 26 .4 26.5-.3.5-28.9.9-65.8.9h-65.3l-.6-12.2c-1.7-31.1-.2-41.9 7.6-55.8 6.4-11.4 18.9-23.5 29.7-28.9 4.7-2.3 11.4-4.8 15-5.6 8.8-2 23.4-1.3 32.5 1.5z"/><path d="M360.4 186c-67.4 4.2-113.9 24.2-155.5 66.8-42.1 42.9-61.7 83-68.4 139.7-2.9 24.2-4.3 31.9-6 33.2-.9.6-4.7 2.4-8.3 3.9-34.5 14.1-56.9 29.8-77.2 54.1C16.1 518.3 2.3 554.7.3 601c-3.1 76.4 40 149.3 108.2 182.6 16.8 8.2 27.1 11.2 41.7 12.4 39.9 3.1 246.9 5.4 432 4.7 138.5-.5 158.6-1 182.6-4.2 30.7-4.2 57.9-18.1 81.3-41.4 21.3-21.2 34.5-45.7 41.1-76.5 3.2-14.8 3.2-43.6-.1-58.6-8.9-41.5-33.4-76.6-66.2-94.9l-5.5-3.1-6 7.2c-6.4 7.6-15.6 15.9-24.1 21.6-2.9 1.9-5.3 3.8-5.3 4.2 0 .3 5.2 3.5 11.6 7.1 20.5 11.3 31.4 22.3 40.9 41.4 7.6 15.3 9.6 23.5 10.2 42.1.4 11.8.2 16.9-1.1 23.3-6.4 31.4-25.2 57.1-52.3 71.3-26.9 14.2-27.4 14.2-311.6 13.5-200.3-.5-279-1.4-316.3-3.6-13.2-.8-16.1-1.4-23-4-31.1-12-61.6-40.7-76.4-71.7-4.7-9.8-10.2-25.7-12.5-36.4-2.2-10.2-3.1-38.5-1.6-50.3 3.6-27.3 13.3-50.1 30.2-71 15.7-19.5 35-33.7 57.1-42.1 17.2-6.4 28.2-13.9 34.6-23.6 6.6-9.9 8.7-18.5 12.7-52 4.9-40.7 15.2-65.6 39.6-96 42.5-52.9 89.9-72.5 171.5-70.8 19.4.4 21.5.7 29.1 3.2 16 5.2 33.5 13.7 49.6 23.9 4.3 2.7 7.9 4.8 8.1 4.6.1-.2 1.7-2.7 3.5-5.6 4-6.4 9.5-11.4 16.1-14.8 4.9-2.5 5-2.7 5-6.9 0-2.4.3-5.7.6-7.4.6-2.8.2-3.4-4.1-6.4-20.4-14.4-55.6-30.3-77.5-35-11.2-2.3-40.9-3.2-63.6-1.8z"/></svg>